<svg id="euNizpXWY0t1" xmlns="http://www.w3.org/2000/svg" xmlns:xlink="http://www.w3.org/1999/xlink" viewBox="0 0 200 200" shape-rendering="geometricPrecision" text-rendering="geometricPrecision"><g transform="matrix(1.210623 0 0 1.210623-24.369337-49.548414)"><path d="M14.474421,109.388269l42.610437,37.597444l55.142916-27.07016-97.753353-10.527284Z" transform="matrix(.66101 0 0 0.978955 25.475391 3.697695)" fill="#1da49d" fill-opacity="0.8" stroke-width="0.5"/><path d="M14.474421,109.388269l42.610437,37.597444l55.142916-27.07016-97.753353-10.527284Z" transform="matrix(-.66101 0 0 0.978955 179.987959 4.211987)" fill="#1da49d" fill-opacity="0.8" stroke-width="0.5"/><path d="M58.087456,157.011698l56.145516-29.576656l53.086161,28.337017-109.231677,1.239639Z" transform="matrix(.66101 0 0 0.978955 27.194416-3.001632)" fill="#1da49d" fill-opacity="0.8" stroke-width="0.5"/><path d="M82.14982,114.902559l21.054569-18.54807l28.072758,18.046771-28.574057,5.012994-20.55327-4.511695Z" transform="translate(0 0.000002)" fill="#1da49d" fill-opacity="0.8" stroke-width="0.5"/></g></svg>