<svg id="ex6RnBy78d41" xmlns="http://www.w3.org/2000/svg" xmlns:xlink="http://www.w3.org/1999/xlink" viewBox="0 0 200 200" shape-rendering="geometricPrecision" text-rendering="geometricPrecision"><g transform="translate(-2.953736-1.868778)"><g><path d="M69.11604,60.260942l8.020788,97.753354l24.563663-67.675398L69.11604,60.260942Z" transform="translate(.000002 0)" fill="#1da49d" fill-opacity="0.8" stroke-width="0.5"/><path d="M63.609541,65.759641L31.526389,49.216766L11.474419,84.809013L43.55757,111.87917l24.07016-6.031182-4.018189-40.088347Z" transform="translate(3.000001-5.999998)" fill="#1da49d" fill-opacity="0.8" stroke-width="0.5"/><path d="M69.617339,116.907758l-30.576658,7.981807l2.005197,21.555868l33.085751,34.088349-4.51429-63.626024Z" transform="translate(1.000002-14.999997)" fill="#1da49d" fill-opacity="0.8" stroke-width="0.5"/></g><g transform="matrix(-1 0 0 1 205.704796 0)"><path d="M69.11604,60.260942l8.020788,97.753354l24.563663-67.675398L69.11604,60.260942Z" transform="translate(.000002 0)" fill="#1da49d" fill-opacity="0.8" stroke-width="0.5"/><path d="M62.599149,65.273935L25.308118,44.203773L11.271739,83.305115l31.275439,28.088349l24.07016-6.031182-4.018189-40.088347Z" transform="translate(3.000001-5.999998)" fill="#1da49d" fill-opacity="0.8" stroke-width="0.5"/><path d="M69.617339,116.907758l-30.576658,7.981807l2.005197,21.555868l33.085751,34.088349-4.51429-63.626024Z" transform="translate(1.000002-14.999997)" fill="#1da49d" fill-opacity="0.8" stroke-width="0.5"/></g><path d="M102.703088,93.346692l-19.04937,56.150714l19.545471,10.01559l19.054569-9.018189-19.55067-57.148115Z" transform="translate(.000002 0.000001)" fill="#1da49d" fill-opacity="0.8" stroke-width="0.5"/></g></svg>