<svg id="etV6KELWmru1" xmlns="http://www.w3.org/2000/svg" xmlns:xlink="http://www.w3.org/1999/xlink" viewBox="0 0 200 200" shape-rendering="geometricPrecision" text-rendering="geometricPrecision"><g transform="matrix(.180974 0 0 0.180975-3.699276 6.226367)"><path d="M136.783069,307.838812l10.463929,49.703665l62.783577-.000001l36.623752-79.787463-109.871258,30.083799Z" transform="translate(58.111312 2.892589)" fill="#1da49d" fill-opacity="0.8" fill-rule="evenodd" stroke-width="7"/><path d="M282.199898,381.895922l41.942176-83.885094l27.479322,72.314743L282.69648,583.130996l-90.977784,25.545785l76.018406-184.838315l14.462796-41.942544Z" transform="matrix(1.000009 0 0 1-5.002151-15.999997)" fill="#1da49d" fill-opacity="0.8" fill-rule="evenodd" stroke-width="7"/><path d="M186.71827,633.881808l95.484217,88.053353l39.76373-100.339868-39.763732-10.238762-95.484217,22.525276" transform="translate(-5.525654-28.474374)" fill="#1da49d" fill-opacity="0.8" fill-rule="evenodd" stroke-width="7"/><path d="M338.348237,652.31158L234.460379,914.423885l21.582049,73.719086L422.306085,857.086818L338.348237,652.31158Z" transform="matrix(.803405 0 0 0.803405 50.558501 81.252584)" fill="#1da49d" fill-opacity="0.8" fill-rule="evenodd" stroke-width="8"/><path d="M213.831831,711.696399L115.143227,844.800304l32.103771,81.910095L263.43112,848.840418l41.89662-72.478286-91.495909-64.665733Z" transform="matrix(.740932 0 0 1 34.892812-78.999999)" fill="#1da49d" fill-opacity="0.8" fill-rule="evenodd" stroke-width="8"/><path d="" fill="#1da49d" fill-opacity="0.8" fill-rule="evenodd" stroke-width="7"/><path d="M256.264268,302.648749l94.370483-47.601132l39.359543-2.047752-39.359543,24.75515-94.370483,24.893734Z" transform="translate(19.211086-25.419359)" fill="#1da49d" fill-opacity="0.8" fill-rule="evenodd" stroke-width="7"/><path d="M356.778005,517.15992l96.736507,233.814812L840.047571,412.724551L731.516692,341.053215L356.778005,517.15992Z" transform="translate(-49.730901 27.628127)" fill="#1da49d" fill-opacity="0.8" fill-rule="evenodd" stroke-width="7"/><path d="M354.730256,531.494189L719.230181,330.814455l-32.76404-79.862343l8.191009-67.575829L354.730256,531.494189Z" transform="translate(-51.778652 9.198355)" fill="#1da49d" fill-opacity="0.8" fill-rule="evenodd" stroke-width="7"/><path d="M340.395989,490.539141L510.359437,126.039217l2.047753,108.530876l20.477522,40.955048-192.488723,215.014Z" transform="translate(11.701671-13.326923)" fill="#1da49d" fill-opacity="0.8" fill-rule="evenodd" stroke-width="7"/><path d="M527.058627,716.707454l126.643477,27.752983l55.289315,4.095505-52.551576-142.74606L527.058627,716.707454Z" transform="translate(-62.784583 19.795916)" fill="#1da49d" fill-opacity="0.8" fill-rule="evenodd" stroke-width="7"/><path d="M682.370638,601.11777l86.0056,282.58983l49.146057-169.963448L682.370638,601.11777Z" transform="translate(-64.786954 39.895985)" fill="#1da49d" fill-opacity="0.8" fill-rule="evenodd" stroke-width="7"/><path d="M661.603853,572.221626l292.554831-56.021141-6.22457,28.010568l71.582561-59.133416-6.224572,32.678999l42.01586-66.914137l4.668426-93.368568l15.56143,116.710701-63.801858,108.930004-9.336853-28.010576-42.015848,56.021134-34.235141-20.229854-28.01057,31.122857-87.53752,71.420806L661.603853,572.221626Z" transform="translate(-49.730901 49.730628)" fill="#1da49d" fill-opacity="0.8" fill-rule="evenodd" stroke-width="7"/><path d="M512.976095,774.371831L479.036523,878.801283l93.986506-83.543561-60.046934-20.885891Z" transform="translate(-52.34164-24.586601)" fill="#1da49d" fill-opacity="0.8" fill-rule="evenodd" stroke-width="7"/></g></svg>