<svg id="eJA4X8H62bT1" xmlns="http://www.w3.org/2000/svg" xmlns:xlink="http://www.w3.org/1999/xlink" viewBox="0 0 200 200" shape-rendering="geometricPrecision" text-rendering="geometricPrecision"><g transform="matrix(1 0 0 0.865347-13.112136 9.229625)"><g transform="translate(0 0.000001)"><path d="M33.523793,84.323306l10.025985,26.568861l34.589647,27.571458l13.033781,1.503896L59.591352,84.323303l-26.067559.000003Z" transform="translate(.000003 0.000003)" fill="#1da49d" fill-opacity="0.8" stroke-width="0.5"/><path d="M39.539384,88.835l5.012992-20.05197L64.103045,88.3337l-24.563661.5013Z" transform="translate(-4.010392-6.51689)" fill="#1da49d" fill-opacity="0.8" stroke-width="0.5"/><path d="M95.183601,147.487012L68.113441,98.359686h19.550671l1.503898,13.03378l6.015591,36.093546Z" transform="translate(-2.005197-7.519489)" fill="#1da49d" fill-opacity="0.8" stroke-width="0.5"/><path d="M67.110839,88.3337L47.058869,49.733658l27.070159,9.524686L92.677102,73.294723l-9.023388,8.020788L86.661512,88.3337h-19.550673Z" transform="translate(.000004 0)" fill="#1da49d" fill-opacity="0.8" stroke-width="0.5"/><path d="M76.134228,57.754444l-.501299-21.555868l22.558466,9.023387l6.516891,11.028583L93.679703,70.788225L76.134228,57.754444Z" transform="translate(.000001 0.000002)" fill="#1da49d" fill-opacity="0.8" stroke-width="0.5"/></g><g transform="matrix(-1 0 0 1 227.232078-1.999999)"><path d="M33.523793,84.323306l10.025985,26.568861l34.589647,27.571458l13.033781,1.503896L59.591352,84.323303l-26.067559.000003Z" transform="translate(.000003 0.000003)" fill="#1da49d" fill-opacity="0.8" stroke-width="0.5"/><path d="M39.539384,88.835l5.012992-20.05197L64.103045,88.3337l-24.563661.5013Z" transform="translate(-4.010392-6.51689)" fill="#1da49d" fill-opacity="0.8" stroke-width="0.5"/><path d="M95.183601,147.487012L68.113441,98.359686h19.550671l1.503898,13.03378l6.015591,36.093546Z" transform="translate(-2.005197-7.519489)" fill="#1da49d" fill-opacity="0.8" stroke-width="0.5"/><path d="M67.110839,88.3337L47.058869,49.733658l27.070159,9.524686L92.677102,73.294723l-9.023388,8.020788L86.661512,88.3337h-19.550673Z" transform="translate(.000004 0)" fill="#1da49d" fill-opacity="0.8" stroke-width="0.5"/><path d="M76.134228,57.754444l-.501299-21.555868l22.558466,9.023387l6.516891,11.028583L93.679703,70.788225L76.134228,57.754444Z" transform="translate(.000001 0.000002)" fill="#1da49d" fill-opacity="0.8" stroke-width="0.5"/></g><path d="M90.671904,99.362281l8.020792,55.142921l8.020787,9.524685l20.553266-.000003l9.023387-10.527284l6.51689-56.646816-27.07016-29.075356L90.671904,99.362281Z" transform="translate(-3.509091-16.542872)" fill="#1da49d" fill-opacity="0.8" stroke-width="0.5"/><path d="M65.105646,141.471421L29.0121,153.001304l77.200084,6.51689L95.183601,148.99091l-30.077955-7.519489Z" transform="translate(-1-4)" fill="#1da49d" fill-opacity="0.8" stroke-width="0.5"/><path d="M70.619938,168.541581L53.575763,187.590952l48.626027-18.046773-31.581852-1.002598Z" transform="translate(1.000002-12)" fill="#1da49d" fill-opacity="0.8" stroke-width="0.5"/><g transform="matrix(-1 0 0 1 226.22428-1)"><path d="M65.105646,141.471421L29.0121,153.001304l77.200084,6.51689L95.183601,148.99091l-30.077955-7.519489Z" transform="translate(-1-4)" fill="#1da49d" fill-opacity="0.8" stroke-width="0.5"/><path d="M70.619938,168.541581L53.575763,187.590952l48.626027-18.046773-31.581852-1.002598Z" transform="translate(1.000002-12)" fill="#1da49d" fill-opacity="0.8" stroke-width="0.5"/></g></g></svg>