<svg id="eaB3VMOumYk1" xmlns="http://www.w3.org/2000/svg" xmlns:xlink="http://www.w3.org/1999/xlink" viewBox="0 0 200 200" shape-rendering="geometricPrecision" text-rendering="geometricPrecision"><g transform="translate(-3.893978-24.409058)"><path d="M19.988713,125.429845L56.082259,92.845394l9.524686,38.098742-45.618232-5.514291Z" transform="translate(-6-2.999999)" fill="#1da49d" fill-opacity="0.8" stroke-width="0.5"/><path d="M59.591354,90.840197l9.524686,41.607838l31.080553-35.090948-40.605239-6.51689Z" transform="translate(-6.999998-1)" fill="#1da49d" fill-opacity="0.8" stroke-width="0.5"/><path d="M67.606942,135.445433l27.571459-32.584451l11.529883,21.054568l10.527284-21.555867l28.072758,35.090947-40.098741,43.623431-37.602643-45.628628Z" transform="translate(-1.999997-3.999997)" fill="#1da49d" fill-opacity="0.8" stroke-width="0.5"/><path d="M86.674504,179.538982l-7.03118,12.062364l5.527282,9.994803l12.519489-.470117.501299-7.519489-11.51689-14.067561Z" transform="translate(1.000002-19)" fill="#1da49d" fill-opacity="0.8" stroke-width="0.5"/><path d="M86.674504,179.538982l-7.03118,12.062364l5.527282,9.994803l12.519489-.470117.501299-7.519489-11.51689-14.067561Z" transform="matrix(-1 0 0 1 205.83472-18)" fill="#1da49d" fill-opacity="0.8" stroke-width="0.5"/><path d="M59.591354,90.840197l12.399958,42.109137l28.205281-35.592247-40.605239-6.51689Z" transform="matrix(-1 0 0 1 216.787948 0)" fill="#1da49d" fill-opacity="0.8" stroke-width="0.5"/><path d="M19.988713,125.429845L56.082259,92.845394l9.524686,38.098742-45.618232-5.514291Z" transform="matrix(-1 0 0 1 213.787948-1.999999)" fill="#1da49d" fill-opacity="0.8" stroke-width="0.5"/><path d="M76.41525,87.72861l4.724176-26.506645L94.48158,66.88286h20.15089l15.98174-5.55887l2.08457,27.09947-19.45604,3.47429-8.3383,17.37146-9.72802-18.06632-18.76117-3.47428Zm16.36683-4.10328c3.06125,0,5.54288-2.48163,5.54288-5.54288s-2.48163-5.54288-5.54288-5.54288-5.54288,2.48163-5.54288,5.54288s2.48163,5.54288,5.54288,5.54288Zm24.06236,0c3.06125,0,5.54288-2.48163,5.54288-5.54288s-2.48163-5.54288-5.54288-5.54288-5.54288,2.48163-5.54288,5.54288s2.48163,5.54288,5.54288,5.54288Z" transform="translate(0 4)" fill="#1da49d" fill-opacity="0.8" stroke-width="0.5"/></g></svg>